<?xml version="1.0" encoding="UTF-8" standalone="no"?>
<!-- Created with Inkscape (http://www.inkscape.org/) -->

<svg
   width="528.17999"
   height="528.17999"
   viewBox="0 0 528.17999 528.17999"
   version="1.1"
   id="svg1"
   inkscape:version="1.4.2 (ebf0e940d0, 2025-05-08)"
   sodipodi:docname="logo.svg"
   inkscape:export-filename="logo.png"
   inkscape:export-xdpi="96"
   inkscape:export-ydpi="96"
   xmlns:inkscape="http://www.inkscape.org/namespaces/inkscape"
   xmlns:sodipodi="http://sodipodi.sourceforge.net/DTD/sodipodi-0.dtd"
   xmlns:xlink="http://www.w3.org/1999/xlink"
   xmlns="http://www.w3.org/2000/svg"
   xmlns:svg="http://www.w3.org/2000/svg">
  <sodipodi:namedview
     id="namedview1"
     pagecolor="#ffffff"
     bordercolor="#000000"
     borderopacity="0.25"
     inkscape:showpageshadow="2"
     inkscape:pageopacity="0.0"
     inkscape:pagecheckerboard="0"
     inkscape:deskcolor="#d1d1d1"
     inkscape:document-units="px"
     showguides="true"
     inkscape:zoom="0.90408767"
     inkscape:cx="-27.099142"
     inkscape:cy="285.9236"
     inkscape:window-width="1920"
     inkscape:window-height="1011"
     inkscape:window-x="0"
     inkscape:window-y="0"
     inkscape:window-maximized="1"
     inkscape:current-layer="g1"
     inkscape:export-bgcolor="#ffffff00" />
  <defs
     id="defs1">
    <linearGradient
       id="linearGradient41"
       inkscape:collect="always">
      <stop
         style="stop-color:#dd5a6c;stop-opacity:0.74609375;"
         offset="0"
         id="stop42" />
      <stop
         style="stop-color:#dd5a6c;stop-opacity:1;"
         offset="1"
         id="stop41" />
    </linearGradient>
    <linearGradient
       id="linearGradient38"
       inkscape:collect="always">
      <stop
         style="stop-color:#41009e;stop-opacity:1;"
         offset="0.19708423"
         id="stop37" />
      <stop
         style="stop-color:#eda600;stop-opacity:1;"
         offset="0.80067158"
         id="stop38" />
    </linearGradient>
    <linearGradient
       id="linearGradient35"
       inkscape:collect="always">
      <stop
         style="stop-color:#ffffff;stop-opacity:1;"
         offset="0.47364333"
         id="stop35" />
      <stop
         style="stop-color:#000000;stop-opacity:1;"
         offset="0.51198876"
         id="stop36" />
    </linearGradient>
    <linearGradient
       id="linearGradient16"
       inkscape:collect="always">
      <stop
         style="stop-color:#370085;stop-opacity:1;"
         offset="0.19708423"
         id="stop15" />
      <stop
         style="stop-color:#eda600;stop-opacity:1;"
         offset="0.80067158"
         id="stop16" />
    </linearGradient>
    <linearGradient
       id="linearGradient12"
       inkscape:collect="always">
      <stop
         style="stop-color:#ccba8f;stop-opacity:1;"
         offset="0.2020957"
         id="stop12" />
      <stop
         style="stop-color:#a68fcc;stop-opacity:1;"
         offset="0.8011862"
         id="stop13" />
    </linearGradient>
    <linearGradient
       id="linearGradient3"
       inkscape:collect="always">
      <stop
         style="stop-color:#41009e;stop-opacity:1;"
         offset="0.19708423"
         id="stop3" />
      <stop
         style="stop-color:#eea700;stop-opacity:1;"
         offset="0.80067158"
         id="stop4" />
    </linearGradient>
    <linearGradient
       inkscape:collect="always"
       xlink:href="#linearGradient16"
       id="linearGradient4"
       x1="74.980667"
       y1="74.980644"
       x2="437.01938"
       y2="437.01938"
       gradientUnits="userSpaceOnUse"
       spreadMethod="repeat" />
    <linearGradient
       inkscape:collect="always"
       xlink:href="#linearGradient12"
       id="linearGradient13"
       x1="77.981728"
       y1="131.99734"
       x2="434.01828"
       y2="488.03391"
       gradientUnits="userSpaceOnUse" />
    <filter
       inkscape:collect="always"
       style="color-interpolation-filters:sRGB"
       id="filter15"
       x="-0.015800781"
       y="-0.015800781"
       width="1.0316016"
       height="1.0316016">
      <feGaussianBlur
         inkscape:collect="always"
         stdDeviation="2.56"
         id="feGaussianBlur15" />
    </filter>
    <linearGradient
       inkscape:collect="always"
       xlink:href="#linearGradient38"
       id="linearGradient17"
       gradientUnits="userSpaceOnUse"
       x1="74.980667"
       y1="74.980644"
       x2="437.01938"
       y2="437.01938"
       spreadMethod="repeat" />
    <linearGradient
       inkscape:collect="always"
       xlink:href="#linearGradient3"
       id="linearGradient18"
       gradientUnits="userSpaceOnUse"
       gradientTransform="translate(-13.301079,1.6525079)"
       x1="151.08817"
       y1="206.74564"
       x2="387.51401"
       y2="443.17148" />
    <linearGradient
       inkscape:collect="always"
       xlink:href="#linearGradient35"
       id="linearGradient36"
       x1="136.37288"
       y1="206.98392"
       x2="375.62714"
       y2="446.23819"
       gradientUnits="userSpaceOnUse" />
    <radialGradient
       inkscape:collect="always"
       xlink:href="#linearGradient41"
       id="radialGradient42"
       cx="99.962845"
       cy="172.82945"
       fx="99.962845"
       fy="172.82945"
       r="27.222692"
       gradientUnits="userSpaceOnUse" />
    <linearGradient
       inkscape:collect="always"
       xlink:href="#linearGradient41"
       id="linearGradient44"
       x1="96.848465"
       y1="176.64775"
       x2="215.66347"
       y2="176.64775"
       gradientUnits="userSpaceOnUse" />
    <linearGradient
       inkscape:collect="always"
       xlink:href="#linearGradient41"
       id="linearGradient1"
       gradientUnits="userSpaceOnUse"
       x1="96.848465"
       y1="176.64775"
       x2="215.66347"
       y2="176.64775" />
    <linearGradient
       inkscape:collect="always"
       xlink:href="#linearGradient41"
       id="linearGradient2"
       gradientUnits="userSpaceOnUse"
       x1="96.848465"
       y1="176.64775"
       x2="215.66347"
       y2="176.64775" />
    <linearGradient
       inkscape:collect="always"
       xlink:href="#linearGradient41"
       id="linearGradient5"
       gradientUnits="userSpaceOnUse"
       x1="96.848465"
       y1="176.64775"
       x2="215.66347"
       y2="176.64775" />
  </defs>
  <g
     inkscape:label="Layer 1"
     inkscape:groupmode="layer"
     id="layer1"
     transform="translate(8.0900002,8.0900002)">
    <path
       sodipodi:type="star"
       style="fill:#000000;stroke-width:1.94646;stroke-linecap:round;stroke-linejoin:round;paint-order:stroke markers fill"
       id="path2"
       inkscape:flatsided="true"
       sodipodi:sides="8"
       sodipodi:cx="-360.79169"
       sodipodi:cy="-121.37232"
       sodipodi:r1="0"
       sodipodi:r2="181.70702"
       sodipodi:arg1="1.0471976"
       sodipodi:arg2="1.4398967"
       inkscape:rounded="1.12"
       inkscape:randomized="0"
       d="m -360.79169,-121.37232 c 0,0 0,0 0,0 0,0 0,0 0,0 0,0 0,0 0,0 0,0 0,0 0,0 0,0 0,0 0,0 0,0 0,0 0,0 0,0 0,0 0,0 z"
       inkscape:transform-center-x="-5.8693313"
       inkscape:transform-center-y="-11.674357" />
    <g
       id="g1">
      <circle
         style="fill:#ddd5da;fill-opacity:1;fill-rule:nonzero;stroke:none;stroke-width:10.2514;stroke-linecap:round;stroke-linejoin:round;stroke-dasharray:none;stroke-opacity:1;paint-order:stroke markers fill"
         id="path35"
         cx="256"
         cy="256"
         r="250.8743" />
      <path
         id="path8"
         style="fill:url(#linearGradient13);fill-opacity:1;fill-rule:nonzero;stroke:#000000;stroke-width:4;stroke-linecap:round;stroke-linejoin:round;stroke-dasharray:none;stroke-opacity:1;paint-order:stroke markers fill"
         d="m 256,127.19141 c -34.72985,0 -44.0705,114.20898 -69.96875,114.20898 -26.36295,0 -33.89256,-54.27539 -53.39453,-54.27539 -10.97843,0 -28.77819,31.13477 -89.398439,31.13477 L 4.2441406,302.41797 54.582031,414.00977 158.82227,492.83984 256,480 l 97.17773,12.83984 104.24024,-78.83007 50.33789,-111.5918 -38.99414,-84.1582 c -60.62024,0 -78.42001,-31.13477 -89.39844,-31.13477 -19.50197,0 -27.03158,54.27539 -53.39453,54.27539 -25.89825,0 -35.2389,-114.20898 -69.96875,-114.20898 z" />
      <path
         id="path1"
         style="fill:url(#linearGradient4);stroke:#000000;stroke-width:3.892;stroke-linecap:round;stroke-linejoin:round;stroke-dasharray:none;stroke-opacity:1;paint-order:stroke markers fill;filter:url(#filter15)"
         d="M 256,0 A 256,256 0 0 0 0,256 256,256 0 0 0 256,512 256,256 0 0 0 512,256 256,256 0 0 0 256,0 Z m 0,32 C 273.14421,32 402.26979,85.484634 414.39258,97.607422 426.51537,109.73022 480,238.85578 480,256 480,273.14421 426.51537,402.26979 414.39258,414.39258 402.26979,426.51538 273.14421,480 256,480 238.85578,480 109.73022,426.51538 97.607422,414.39258 85.484634,402.26979 32,273.14422 32,256 32,238.85578 85.484634,109.73021 97.607422,97.607422 109.73022,85.484621 238.85578,32 256,32 Z" />
      <path
         id="path16"
         style="fill:url(#linearGradient17);stroke:#000000;stroke-width:3.892;stroke-linecap:round;stroke-linejoin:round;stroke-dasharray:none;stroke-opacity:1;paint-order:stroke markers fill"
         d="M 256,0 A 256,256 0 0 0 0,256 256,256 0 0 0 256,512 256,256 0 0 0 512,256 256,256 0 0 0 256,0 Z m 0,32 C 273.14421,32 402.26979,85.484634 414.39258,97.607422 426.51537,109.73022 480,238.85578 480,256 480,273.14421 426.51537,402.26979 414.39258,414.39258 402.26979,426.51538 273.14421,480 256,480 238.85578,480 109.73022,426.51538 97.607422,414.39258 85.484634,402.26979 32,273.14422 32,256 32,238.85578 85.484634,109.73021 97.607422,97.607422 109.73022,85.484621 238.85578,32 256,32 Z" />
      <path
         style="font-weight:800;font-size:149.333px;line-height:0.8;font-family:'EB Garamond';-inkscape-font-specification:'EB Garamond Ultra-Bold';fill:url(#linearGradient18);stroke:#000000;stroke-width:4;stroke-linecap:round;stroke-linejoin:round;paint-order:stroke markers fill"
         d="m 91.509776,375.59226 c 6.570652,0 16.426634,-0.74667 22.399944,-0.74667 5.82399,0 18.81596,0.59733 25.08795,0.59733 1.49333,0 2.38933,-0.74666 2.38933,-2.23999 0,-1.94133 -1.04534,-2.688 -2.83733,-3.136 -8.51198,-1.79199 -11.64797,-3.28532 -11.64797,-9.55731 0,-8.95998 -0.29867,-19.11462 -0.29867,-28.0746 0,-2.09066 1.04533,-3.43466 3.28532,-3.43466 h 15.53064 c 3.73332,0 5.82398,1.792 7.61598,7.91465 0.59733,2.09066 2.09066,3.58399 3.58399,3.58399 1.04533,0 1.792,-1.19466 1.49333,-4.18132 -0.448,-4.47999 -0.59733,-6.27199 -0.59733,-10.30398 0,-2.98666 0.29866,-7.01865 0.74666,-11.34931 0.14934,-2.23999 -0.89599,-3.43465 -1.79199,-3.43465 -1.19467,0 -2.38933,0.89599 -3.136,2.68799 -1.79199,4.47999 -3.43465,8.06398 -8.66131,8.06398 h -13.88797 c -2.38932,0 -3.88265,-0.896 -3.88265,-3.58399 v -26.58127 c 0,-4.33066 3.58399,-6.86932 8.51198,-6.86932 h 9.40797 c 5.22666,0 8.51198,1.344 11.05065,3.88266 2.68799,2.83732 4.18132,7.16798 5.67465,12.39464 0.448,1.79199 2.09066,2.53866 3.13599,2.53866 1.04533,0 1.94133,-1.04533 1.94133,-2.98666 0,-5.37599 -0.29866,-13.58931 -0.74666,-21.20529 -0.14934,-2.38933 -2.38933,-3.13599 -3.88266,-3.13599 -4.47999,0 -11.79731,1.64266 -20.30929,1.64266 h -27.77594 c -5.97331,0 -14.933295,-0.74666 -21.503946,-0.74666 -1.791996,0 -2.98666,1.04533 -2.98666,2.38932 0,1.19467 0.746665,2.53867 3.135993,3.136 7.01865,1.64266 8.959983,3.58399 8.959983,10.00531 v 67.79718 c 0,6.12265 -2.239999,7.76531 -9.855981,9.40797 -1.791996,0.448 -2.837327,1.49333 -2.837327,3.28533 0,1.344 1.49333,2.24 2.687994,2.24 z m 82.730604,0 c 6.57065,0 16.42663,-0.74667 22.39995,-0.74667 5.82399,0 18.81596,0.59733 25.08794,0.59733 1.49333,0 2.38933,-0.74666 2.38933,-2.23999 0,-1.94133 -1.04533,-2.688 -2.83733,-3.136 -8.51198,-1.79199 -11.64797,-3.28532 -11.64797,-9.55731 l 0.14933,-68.99184 c 0,-5.37599 2.688,-7.91465 8.36265,-7.91465 9.70665,0 15.23197,7.61598 15.23197,26.58127 0,14.78397 -3.88266,24.93861 -11.49864,24.93861 -2.53866,0 -3.584,-0.74666 -5.97332,-0.74666 -1.04533,0 -2.83733,0.74666 -2.83733,2.38933 0,2.38933 2.83733,4.18132 8.21331,4.18132 24.63995,0 36.73592,-16.12796 36.73592,-35.09325 0,-18.06929 -15.3813,-29.26927 -39.87191,-29.26927 -11.19997,0 -14.33597,1.49333 -21.50395,1.49333 -5.97332,0 -14.9333,-0.74666 -21.50395,-0.74666 -1.792,0 -2.98666,1.04533 -2.98666,2.38932 0,1.19467 0.74667,2.53867 3.13599,3.136 7.01865,1.64266 8.95998,3.58399 8.95998,10.00531 v 67.79718 c 0,6.12265 -2.23999,7.76531 -9.85598,9.40797 -1.79199,0.448 -2.83732,1.49333 -2.83732,3.28533 0,1.344 1.49333,2.24 2.68799,2.24 z m 120.66098,1.64266 c 21.80262,0 36.28792,-9.10931 36.28792,-30.3146 0,-13.1413 -4.92799,-21.20528 -22.10129,-31.50926 -12.39463,-7.31732 -20.01062,-12.54397 -20.01062,-19.11462 0,-8.21332 4.03199,-12.69331 13.29064,-12.69331 9.70664,0 16.72529,6.42132 19.86129,18.66663 0.448,1.49333 2.09066,2.38932 3.73332,2.38932 1.792,0 2.83733,-0.89599 2.83733,-1.94132 0,-7.76532 -0.448,-13.88797 -1.49333,-18.0693 -1.04533,-3.28532 -1.64266,-3.88265 -4.18132,-4.92799 -4.33066,-1.79199 -12.24531,-3.73332 -19.86129,-3.73332 -19.41329,0 -35.69059,11.34931 -35.69059,29.11993 0,17.77063 12.99197,25.08795 25.53594,31.95726 11.79731,6.42132 17.02397,10.30398 17.02397,19.26396 0,5.97332 -4.032,13.73863 -13.29064,13.73863 -12.24531,0 -21.35462,-10.9013 -25.83461,-25.68527 -0.74666,-1.344 -1.19466,-1.94133 -3.28532,-1.94133 -1.64267,0 -2.83733,0.59733 -2.83733,1.94133 -0.448,8.81065 0.29866,17.32263 2.53866,22.99728 0.59733,1.49333 1.94133,2.83733 3.43466,3.73333 7.16798,4.33065 15.3813,6.12265 24.04261,6.12265 z m 47.33855,-1.344 c 5.82399,0 15.53063,-0.74666 21.50395,-0.74666 18.06929,0 46.29323,0.74666 51.81855,0.74666 1.792,0 2.38933,-1.49333 2.53866,-2.83733 0.74667,-7.46664 1.94133,-11.49864 4.47999,-20.45862 0,-0.89599 0.59733,-2.98666 0.59733,-3.43465 0,-1.344 -0.59733,-3.136 -2.09066,-3.136 -1.19466,0 -2.09066,0.29867 -4.18132,4.77866 -2.09066,4.47999 -4.62933,8.95998 -8.06398,12.09597 -2.83733,2.53866 -6.12266,4.18132 -10.30398,4.18132 h -14.4853 c -5.07732,0 -7.31732,-2.09066 -7.31732,-7.61598 v -66.45318 c 0,-5.97332 1.49333,-7.76531 9.70665,-10.15464 1.79199,-0.59733 2.83732,-1.19467 2.83732,-3.136 0,-1.49333 -0.89599,-2.23999 -2.38932,-2.23999 -6.27199,0 -17.32263,0.59733 -23.14662,0.59733 -5.97332,0 -15.8293,-0.74666 -22.39995,-0.74666 -1.19466,0 -2.68799,0.89599 -2.68799,2.23999 0,1.792 1.04533,2.83733 2.83733,3.28533 7.91464,1.79199 9.85597,3.58399 9.85597,10.00531 v 68.09584 c 0,6.12265 -2.38932,7.46665 -8.95998,9.40798 -1.94133,0.59733 -2.98666,1.94133 -2.98666,3.13599 0,1.19467 1.04533,2.38933 2.83733,2.38933 z"
         id="text16"
         aria-label="FPSL" />
      <g
         id="path30"
         style="opacity:1;fill:url(#linearGradient44)"
         transform="translate(0.811527,-3.5293)">
        <path
           id="path33"
           style="baseline-shift:baseline;display:inline;overflow:visible;fill:url(#linearGradient1);fill-opacity:1;stroke:#000000;stroke-width:4;stroke-linecap:round;stroke-linejoin:round;stroke-dasharray:none;stroke-opacity:1;paint-order:stroke markers fill;enable-background:accumulate;stop-color:#000000;stop-opacity:1"
           d="m 177.20312,155.9082 c -3.47448,-0.19746 -6.40033,2.56679 -6.40039,6.04688 v 4.69922 h -27.95507 c -5.52285,0 -10,4.47715 -10,10 0,5.52285 4.47715,10 10,10 h 27.95507 v 4.70117 c 8.7e-4,4.50207 4.73894,7.42958 8.76563,5.41601 l 31.4707,-15.73437 c 3.61186,-1.80568 3.61186,-6.95995 0,-8.76563 l -31.4707,-15.73437 c -0.7374,-0.3684 -1.54224,-0.58241 -2.36524,-0.62891 z"
           sodipodi:nodetypes="cccsssccccccc" />
        <g
           id="g32"
           style="fill:url(#linearGradient2)" />
        <path
           style="baseline-shift:baseline;display:inline;overflow:visible;vector-effect:none;fill:url(#linearGradient5);stroke-linecap:round;stroke-linejoin:round;paint-order:stroke markers fill;enable-background:accumulate;stop-color:#000000;stop-opacity:1"
           d="M 96.848462,176.65492 H 180.60368"
           id="path34" />
      </g>
      <circle
         style="fill:url(#radialGradient42);fill-opacity:1;fill-rule:nonzero;stroke:#000000;stroke-width:3.892;stroke-linecap:round;stroke-linejoin:round;stroke-dasharray:none;stroke-opacity:1;paint-order:stroke markers fill"
         id="path29"
         cx="99.962845"
         cy="172.82945"
         r="25.276693" />
    </g>
  </g>
</svg>
