<?xml version="1.0" encoding="UTF-8" standalone="no"?>
<svg
   width="50"
   height="50"
   viewBox="0 0 50 50"
   fill="none"
   version="1.1"
   id="svg11"
   sodipodi:docname="maintenance.svg"
   inkscape:version="1.4 (1:1.4+202410161351+e7c3feb100)"
   xmlns:inkscape="http://www.inkscape.org/namespaces/inkscape"
   xmlns:sodipodi="http://sodipodi.sourceforge.net/DTD/sodipodi-0.dtd"
   xmlns="http://www.w3.org/2000/svg"
   xmlns:svg="http://www.w3.org/2000/svg">
  <sodipodi:namedview
     id="namedview11"
     pagecolor="#ffffff"
     bordercolor="#000000"
     borderopacity="0.25"
     inkscape:showpageshadow="2"
     inkscape:pageopacity="0.0"
     inkscape:pagecheckerboard="0"
     inkscape:deskcolor="#d1d1d1"
     inkscape:zoom="17.62"
     inkscape:cx="25.028377"
     inkscape:cy="25"
     inkscape:window-width="1920"
     inkscape:window-height="1131"
     inkscape:window-x="0"
     inkscape:window-y="0"
     inkscape:window-maximized="1"
     inkscape:current-layer="svg11" />
  <path
     d="M12.1709 24.1927C12.1709 24.1927 18.2922 21.6069 19.9491 19.9501C21.6059 18.2932 24.1917 12.1719 24.1917 12.1719L37.6267 25.6069C37.6267 25.6069 31.5283 28.1698 29.8486 29.8495C28.1689 31.5293 25.6059 37.6277 25.6059 37.6277L12.1709 24.1927Z"
     fill="#1BB6F9"
     id="path1" />
  <path
     d="M12.1709 24.1927C12.1709 24.1927 18.2922 21.6069 19.9491 19.9501C21.6059 18.2932 24.1917 12.1719 24.1917 12.1719L37.6267 25.6069C37.6267 25.6069 31.5283 28.1698 29.8486 29.8495C28.1689 31.5293 25.6059 37.6277 25.6059 37.6277L12.1709 24.1927Z"
     fill="url(#paint0_linear_3358_13642)"
     fill-opacity="0.2"
     id="path2" />
  <path
     fill-rule="evenodd"
     clip-rule="evenodd"
     d="M42.577 22.7782C46.8728 18.4824 46.8728 11.5176 42.577 7.22182C38.2812 2.92606 31.3164 2.92606 27.0207 7.22183C22.7249 11.5176 22.7249 18.4824 27.0207 22.7782C31.3164 27.0739 38.2812 27.0739 42.577 22.7782ZM38.3344 18.5355C40.287 16.5829 40.287 13.4171 38.3344 11.4645C36.3817 9.51185 33.2159 9.51185 31.2633 11.4645C29.3107 13.4171 29.3107 16.5829 31.2633 18.5355C33.2159 20.4882 36.3818 20.4882 38.3344 18.5355Z"
     fill="#0382F3"
     id="path3" />
  <path
     fill-rule="evenodd"
     clip-rule="evenodd"
     d="M42.577 22.7782C46.8728 18.4824 46.8728 11.5176 42.577 7.22182C38.2812 2.92606 31.3164 2.92606 27.0207 7.22183C22.7249 11.5176 22.7249 18.4824 27.0207 22.7782C31.3164 27.0739 38.2812 27.0739 42.577 22.7782ZM38.3344 18.5355C40.287 16.5829 40.287 13.4171 38.3344 11.4645C36.3817 9.51185 33.2159 9.51185 31.2633 11.4645C29.3107 13.4171 29.3107 16.5829 31.2633 18.5355C33.2159 20.4882 36.3818 20.4882 38.3344 18.5355Z"
     fill="url(#paint1_linear_3358_13642)"
     fill-opacity="0.2"
     id="path4" />
  <path
     fill-rule="evenodd"
     clip-rule="evenodd"
     d="M22.7782 42.577C27.0739 38.2812 27.0739 31.3164 22.7782 27.0207C18.4824 22.7249 11.5176 22.7249 7.22182 27.0207C2.92606 31.3164 2.92606 38.2812 7.22183 42.577C11.5176 46.8728 18.4824 46.8728 22.7782 42.577ZM18.5355 38.3344C20.4882 36.3817 20.4882 33.2159 18.5355 31.2633C16.5829 29.3107 13.4171 29.3107 11.4645 31.2633C9.51185 33.2159 9.51185 36.3817 11.4645 38.3344C13.4171 40.287 16.5829 40.287 18.5355 38.3344Z"
     fill="#0382F3"
     id="path5" />
  <path
     fill-rule="evenodd"
     clip-rule="evenodd"
     d="M22.7782 42.577C27.0739 38.2812 27.0739 31.3164 22.7782 27.0207C18.4824 22.7249 11.5176 22.7249 7.22182 27.0207C2.92606 31.3164 2.92606 38.2812 7.22183 42.577C11.5176 46.8728 18.4824 46.8728 22.7782 42.577ZM18.5355 38.3344C20.4882 36.3817 20.4882 33.2159 18.5355 31.2633C16.5829 29.3107 13.4171 29.3107 11.4645 31.2633C9.51185 33.2159 9.51185 36.3817 11.4645 38.3344C13.4171 40.287 16.5829 40.287 18.5355 38.3344Z"
     fill="url(#paint2_linear_3358_13642)"
     fill-opacity="0.2"
     id="path6" />
  <defs
     id="defs11">
    <linearGradient
       id="paint0_linear_3358_13642"
       x1="12.1709"
       y1="12.1719"
       x2="42.119"
       y2="19.6589"
       gradientUnits="userSpaceOnUse">
      <stop
         stop-color="white"
         id="stop6" />
      <stop
         offset="1"
         stop-color="white"
         stop-opacity="0"
         id="stop7" />
    </linearGradient>
    <linearGradient
       id="paint1_linear_3358_13642"
       x1="23.7988"
       y1="4"
       x2="49.6812"
       y2="10.4706"
       gradientUnits="userSpaceOnUse">
      <stop
         stop-color="white"
         id="stop8" />
      <stop
         offset="1"
         stop-color="white"
         stop-opacity="0"
         id="stop9" />
    </linearGradient>
    <linearGradient
       id="paint2_linear_3358_13642"
       x1="4"
       y1="23.7988"
       x2="29.8824"
       y2="30.2694"
       gradientUnits="userSpaceOnUse">
      <stop
         stop-color="white"
         id="stop10" />
      <stop
         offset="1"
         stop-color="white"
         stop-opacity="0"
         id="stop11" />
    </linearGradient>
  </defs>
  <g
     id="g6"
     transform="matrix(0.34392735,0,0,0.34392735,27.23269,30.916004)">
    <path
       d="m 34,17 a 9,9 0 1 1 -18,0 9,9 0 0 1 18,0 z"
       fill="#985184"
       id="path1-6" />
    <path
       d="m 12,24 a 4,4 0 1 1 -8,0 4,4 0 0 1 8,0 z"
       fill="#fbb945"
       id="path2-2" />
    <path
       d="m 46,24 a 4,4 0 1 1 -8,0 4,4 0 0 1 8,0 z"
       fill="#1ad3bb"
       id="path3-9" />
    <path
       d="M 25,30 H 4 a 4,4 0 0 0 -4,4 v 4 a 4,4 0 0 0 4,4 h 21 z"
       fill="#fbb945"
       id="path4-1" />
    <path
       d="M 46,30 H 25 v 12 h 21 a 4,4 0 0 0 4,-4 v -4 a 4,4 0 0 0 -4,-4 z"
       fill="#1ad3bb"
       id="path5-2" />
    <path
       d="m 12,30 h 14 c 6.627,0 12,5.373 12,12 H 24 C 17.373,42 12,36.627 12,30 Z"
       fill="#985184"
       id="path6-7" />
  </g>
</svg>
