<?xml version="1.0" encoding="UTF-8" standalone="no"?>
<!-- Created with Inkscape (http://www.inkscape.org/) -->

<svg
   xmlns:dc="http://purl.org/dc/elements/1.1/"
   xmlns:cc="http://creativecommons.org/ns#"
   xmlns:rdf="http://www.w3.org/1999/02/22-rdf-syntax-ns#"
   xmlns:svg="http://www.w3.org/2000/svg"
   xmlns="http://www.w3.org/2000/svg"
   xmlns:xlink="http://www.w3.org/1999/xlink"
   xmlns:sodipodi="http://sodipodi.sourceforge.net/DTD/sodipodi-0.dtd"
   xmlns:inkscape="http://www.inkscape.org/namespaces/inkscape"
   width="96"
   height="96"
   viewBox="0 0 96 96"
   id="svg2"
   version="1.1"
   inkscape:version="0.92.5 (2060ec1f9f, 2020-04-08)"
   sodipodi:docname="phoney-dictate.svg">
  <defs
     id="defs4">
    <linearGradient
       inkscape:collect="always"
       id="linearGradient4759">
      <stop
         style="stop-color:#575757;stop-opacity:1"
         offset="0"
         id="stop4755" />
      <stop
         style="stop-color:#101010;stop-opacity:1"
         offset="1"
         id="stop4757" />
    </linearGradient>
    <linearGradient
       inkscape:collect="always"
       id="linearGradient4751">
      <stop
         style="stop-color:#ffffff;stop-opacity:1;"
         offset="0"
         id="stop4747" />
      <stop
         style="stop-color:#e4e4e4;stop-opacity:1"
         offset="1"
         id="stop4749" />
    </linearGradient>
    <linearGradient
       inkscape:collect="always"
       id="linearGradient4735">
      <stop
         style="stop-color:#363636;stop-opacity:1"
         offset="0"
         id="stop4731" />
      <stop
         style="stop-color:#6d6d6d;stop-opacity:1"
         offset="1"
         id="stop4733" />
    </linearGradient>
    <linearGradient
       inkscape:collect="always"
       id="linearGradient4725">
      <stop
         style="stop-color:#9d9d9d;stop-opacity:1"
         offset="0"
         id="stop4721" />
      <stop
         id="stop4729"
         offset="0.42546"
         style="stop-color:#727272;stop-opacity:1" />
      <stop
         style="stop-color:#5c5c5c;stop-opacity:1"
         offset="1"
         id="stop4723" />
    </linearGradient>
    <radialGradient
       inkscape:collect="always"
       xlink:href="#linearGradient4725"
       id="radialGradient4727"
       cx="296.347"
       cy="736.488"
       fx="296.347"
       fy="736.488"
       r="9.505"
       gradientTransform="matrix(2.37815,-0.938559,1.30295,3.30144,-1358.31,-1444.04)"
       gradientUnits="userSpaceOnUse" />
    <linearGradient
       inkscape:collect="always"
       xlink:href="#linearGradient4735"
       id="linearGradient4737"
       x1="301.876"
       y1="774.027"
       x2="293.872"
       y2="751.023"
       gradientUnits="userSpaceOnUse"
       gradientTransform="matrix(1.30092,0,0,1.30092,-79.1762,-237.502)" />
    <radialGradient
       inkscape:collect="always"
       xlink:href="#linearGradient4751"
       id="radialGradient4753"
       cx="292.969"
       cy="744.061"
       fx="292.969"
       fy="744.061"
       r="32.008"
       gradientUnits="userSpaceOnUse"
       gradientTransform="matrix(1.27047,0,0,1.27047,-70.0408,-214.592)" />
    <linearGradient
       inkscape:collect="always"
       xlink:href="#linearGradient4759"
       id="linearGradient4761"
       x1="290.016"
       y1="693.598"
       x2="332.426"
       y2="762.801"
       gradientUnits="userSpaceOnUse" />
  </defs>
  <sodipodi:namedview
     id="base"
     pagecolor="#ffffff"
     bordercolor="#666666"
     borderopacity="1.0"
     inkscape:pageopacity="0.0"
     inkscape:pageshadow="2"
     inkscape:zoom="0.35"
     inkscape:cx="-109.286"
     inkscape:cy="520"
     inkscape:document-units="px"
     inkscape:current-layer="layer1"
     showgrid="false"
     units="px"
     inkscape:window-width="1366"
     inkscape:window-height="744"
     inkscape:window-x="0"
     inkscape:window-y="24"
     inkscape:window-maximized="1"
     inkscape:object-paths="false"
     inkscape:snap-to-guides="true"
     inkscape:snap-grids="false"
     showguides="true"
     inkscape:guide-bbox="true"
     inkscape:snap-intersection-paths="false"
     inkscape:snap-global="false"
     inkscape:lockguides="true"
     inkscape:snap-smooth-nodes="true"
     inkscape:pagecheckerboard="true"
     fit-margin-top="0"
     fit-margin-left="0"
     fit-margin-right="0"
     fit-margin-bottom="0" />
  <metadata
     id="metadata7">
    <rdf:RDF>
      <cc:Work
         rdf:about="">
        <dc:format>image/svg+xml</dc:format>
        <dc:type
           rdf:resource="http://purl.org/dc/dcmitype/StillImage" />
        <dc:title />
      </cc:Work>
    </rdf:RDF>
  </metadata>
  <g
     inkscape:label="Layer 1"
     inkscape:groupmode="layer"
     id="layer1"
     transform="translate(-263.111,-693.246)">
    <path
       d="M311.0998 693.27113516C298.53681556 693.27113516 286.0505854 698.44099124 277.16660272 707.323673C268.28262004 716.20765568 263.11146304 728.69388584 263.11016212 741.25687028C263.11016212 753.82115564 268.28262004 766.3073858 277.16660272 775.19006756C286.0505854 784.07405024 298.53681556 789.24390632 311.0998 789.24390632C323.66278444 789.24390632 336.1490146 784.07405024 345.03299728 775.19006756C353.91697996 766.3073858 359.08943788 753.82115564 359.08943788 741.25687028C359.08943788 728.69388584 353.91697996 716.20765568 345.03299728 707.323673C336.1490146 698.44099124 323.66278444 693.27113516 311.0998 693.27113516C311.0998 693.27113516 311.0998 693.27113516 311.0998 693.27113516"
       id="path4703"
       style="stroke-linejoin:round;text-rendering:auto;color-rendering:auto;fill-opacity:1;color:#000000;shape-rendering:auto;solid-color:#000000;stroke:none;stroke-linecap:round;stroke-width:1.414203;color-interpolation-filters:linearRGB;fill:url(#linearGradient4761);solid-opacity:1;fill-rule:evenodd;mix-blend-mode:normal;stroke-miterlimit:4;opacity:1;visibility:visible;clip-rule:nonzero;image-rendering:auto;overflow:visible;stroke-opacity:0.396552;isolation:auto;stroke-dashoffset:0;stroke-dasharray:none;enable-background:accumulate;display:inline;color-interpolation:sRGB" />
    <path
       id="path4694"
       d="M351.765 741.258C351.764502951 763.716291703 333.558291709 781.922055233 311.1 781.922C300.31496331 781.922291742 289.971540673 777.6382187 282.345180557 770.012233657C274.718820441 762.386248614 270.434238692 752.043036691 270.434 741.257999999C270.433973474 730.472790045 274.718438142 720.129321218 282.344827004 712.503119892C289.971215867 704.876918567 300.314790051 700.592708256 311.1 700.593C321.88503669 700.592973478 332.228353967 704.877300875 339.854526546 712.503473453C347.480699125 720.129646032 351.765026521 730.472963309 351.765 741.257999999C351.765 741.257999999 351.765 741.258 351.765 741.258"
       style="stroke-linejoin:round;text-rendering:auto;color-rendering:auto;fill-opacity:1;color:#000000;shape-rendering:auto;solid-color:#000000;stroke:none;stroke-linecap:round;stroke-width:1.41420224866;color-interpolation-filters:linearRGB;fill:url(#radialGradient4753);solid-opacity:1;fill-rule:evenodd;mix-blend-mode:normal;stroke-miterlimit:4;opacity:1;visibility:visible;clip-rule:nonzero;image-rendering:auto;overflow:visible;stroke-opacity:0.396552;isolation:auto;stroke-dashoffset:0;stroke-dasharray:none;enable-background:accumulate;display:inline;color-interpolation:sRGB" />
    <path
       id="path825"
       d="M311.098 706.107C304.272076811 706.10799293 298.738201787 711.64007749 298.735 718.466C298.735 718.466 298.735 743.379 298.735 743.379C298.738753618 750.204531957 304.272467084 755.736007408 311.098 755.737C317.92509483 755.738215739 323.461245559 750.206093906 323.465 743.379C323.465 743.379 323.465 718.466 323.465 718.466C323.461797516 711.638515514 317.925485129 706.105784473 311.098 706.107C311.098 706.107 311.098 706.107 311.098 706.107"
       style="stroke-linejoin:round;text-rendering:auto;color-rendering:auto;fill-opacity:1;color:#000000;shape-rendering:auto;solid-color:#000000;stroke:none;stroke-linecap:round;stroke-width:1.41421073395;color-interpolation-filters:linearRGB;fill:url(#radialGradient4727);solid-opacity:1;fill-rule:evenodd;mix-blend-mode:normal;stroke-miterlimit:4;opacity:1;visibility:visible;clip-rule:nonzero;image-rendering:auto;overflow:visible;stroke-opacity:0.396552;isolation:auto;stroke-dashoffset:0;stroke-dasharray:none;enable-background:accumulate;display:inline;color-interpolation:sRGB" />
    <path
       id="path4608"
       d="M290.938 732.649C290.938 732.649 290.938 753.759 290.938 753.759C290.937018255 756.79081728 292.140899741 759.698755733 294.284624634 761.842668178C296.428349526 763.986580623 299.336182645 765.190716506 302.368 765.19C302.368 765.19 307.066 765.19 307.066 765.19C307.066 765.19 308.294 765.19 308.294 765.19C308.294 765.19 308.294 775.658 308.294 775.658C308.294 775.658 313.906 775.658 313.906 775.658C313.906 775.658 313.906 765.19 313.906 765.19C313.906 765.19 315.135 765.19 315.135 765.19C315.135 765.19 319.832 765.19 319.832 765.19C322.863470852 765.190185857 325.770790045 763.98581572 327.914082306 761.841960817C330.057374567 759.698105913 331.260981554 756.790470699 331.26 753.759C331.26 753.759 331.26 732.649 331.26 732.649C331.26 732.649 325.649 732.649 325.649 732.649C325.649 732.649 325.649 753.759 325.649 753.759C325.649769475 755.302183975 325.037219706 756.782413355 323.946211288 757.873796883C322.855202871 758.965180411 321.375184148 759.578238989 319.832 759.578C319.832 759.578 315.135 759.578 315.135 759.578C315.135 759.578 307.066 759.578 307.066 759.578C307.066 759.578 302.368 759.578 302.368 759.578C300.824642607 759.578504375 299.344366887 758.965562951 298.253142134 757.874150638C297.161917382 756.782738325 296.549230375 755.302357284 296.55 753.759C296.55 753.759 296.55 732.649 296.55 732.649C296.55 732.649 290.938 732.649 290.938 732.649"
       style="stroke-linejoin:round;text-rendering:auto;color-rendering:auto;fill-opacity:1;color:#000000;shape-rendering:auto;solid-color:#000000;stroke:none;stroke-linecap:round;stroke-width:1.41420790552;color-interpolation-filters:linearRGB;fill:url(#linearGradient4737);solid-opacity:1;fill-rule:evenodd;mix-blend-mode:normal;stroke-miterlimit:4;opacity:1;visibility:visible;clip-rule:nonzero;image-rendering:auto;overflow:visible;stroke-opacity:0.396552;isolation:auto;stroke-dashoffset:0;stroke-dasharray:none;enable-background:accumulate;display:inline;color-interpolation:sRGB" />
  </g>
</svg>
